<svg aria-hidden="true" style="position:absolute;width:0;height:0" xmlns="http://www.w3.org/2000/svg" overflow="hidden"><defs><symbol id="icon-icon_01" viewBox="0 0 32 32"><path fill="none" stroke="var(--color1, #1f65d9)" stroke-miterlimit="10" stroke-width="1.746" d="M29.847 22.08a15.603 15.603 0 01-2.705 4.131m-14.4-24.989A15.09 15.09 0 0116 .873C24.349.873 31.127 7.651 31.127 16c0 .756-.058 1.513-.175 2.211M3.287 7.767c.32-.495.669-.96 1.047-1.425m16.088 24.116c-1.396.436-2.88.669-4.422.669C7.651 31.127.873 24.349.873 16c0-1.571.233-3.084.669-4.509"/><path fill="none" stroke="var(--color1, #1f65d9)" stroke-miterlimit="10" stroke-width="1.746" d="M5.149 16c0-5.993 4.858-10.851 10.851-10.851 1.978 0 3.84.524 5.44 1.455M8.465 23.825A9.303 9.303 0 017.01 22.08M26.851 16c0 5.993-4.858 10.851-10.851 10.851-1.978 0-3.84-.524-5.44-1.455M23.535 8.175A9.303 9.303 0 0124.99 9.92m-4.19 3.287L16 10.414l-4.8 2.793v5.585l4.8 2.793 4.8-2.793z"/></symbol><symbol id="icon-icon_02" viewBox="0 0 32 32"><path fill="none" stroke="var(--color1, #1f65d9)" stroke-miterlimit="10" stroke-width="1.744" d="M.872 26.536v-7.324h6.51m0 2.499v9.417H.872m11.48-11.219V.872h6.51v30.256h-6.51m0-7.499v-1.918m18.311 4.447v4.97h-6.51v-2.47m0-2.122V11.422h6.51v10.812"/></symbol><symbol id="icon-icon_03" viewBox="0 0 33 32"><path fill="none" stroke="var(--color1, #1f65d9)" stroke-miterlimit="10" stroke-width="1.794" d="M9.062 18.333c-1.465-4.007.598-8.464 4.636-9.959a7.678 7.678 0 014.007-.359m-4.486 14.744a6.632 6.632 0 01-1.406-.807m11.813-8.943c1.465 4.007-.598 8.464-4.636 9.959a7.678 7.678 0 01-4.007.359m4.486-14.744c.508.209.957.479 1.406.807"/><path fill="none" stroke="var(--color1, #1f65d9)" stroke-miterlimit="10" stroke-width="1.794" d="M26.318 3.708L10.976.987 1.017 12.95 6.4 27.634l15.312 2.751 9.959-11.993zm-4.426 17.376L32.15 31.372"/></symbol><symbol id="icon-icon_04" viewBox="0 0 32 32"><path fill="none" stroke="var(--color1, #1f65d9)" stroke-miterlimit="10" stroke-width="1.744" d="M23.891 19.706c-2.383 4.592-8.051 6.365-12.643 3.982a9.309 9.309 0 01-3.575-3.284m3.284-9.534v1.918m8.691-1.918v1.918M5.522 27.117a14.994 14.994 0 01-3.197-4.185"/><path fill="none" stroke="var(--color1, #1f65d9)" stroke-miterlimit="10" stroke-width="1.744" d="M30.896 16.334c-.174 8.196-6.888 14.794-15.114 14.794-2.151 0-4.214-.465-6.074-1.279M26.797 5.638c.465.494.901 1.017 1.279 1.569m-6.423-5.143c.785.32 1.511.727 2.209 1.163M.872 13.457C2.064 6.307 8.283.872 15.782.872c1.337 0 2.645.174 3.866.494"/></symbol></defs></svg>